<svg xmlns="http://www.w3.org/2000/svg" width="24.236" height="24.236" viewBox="0 0 24.236 24.236"><defs><style>.a{fill:#adadad;}</style></defs><path class="a" d="M21.667,6.52a5.064,5.064,0,0,1,5.049,5.049v10.1a5.064,5.064,0,0,1-5.049,5.049h-10.1A5.064,5.064,0,0,1,6.52,21.667v-10.1A5.064,5.064,0,0,1,11.569,6.52h10.1m0-2.02h-10.1A7.09,7.09,0,0,0,4.5,11.569v10.1a7.09,7.09,0,0,0,7.069,7.069h10.1a7.09,7.09,0,0,0,7.069-7.069v-10.1A7.09,7.09,0,0,0,21.667,4.5Z" transform="translate(-4.5 -4.5)"/><path class="a" d="M25.14,12.03a1.515,1.515,0,1,1,1.515-1.515A1.511,1.511,0,0,1,25.14,12.03Z" transform="translate(-6.458 -4.961)"/><path class="a" d="M17.309,13.27a4.039,4.039,0,1,1-4.039,4.039,4.043,4.043,0,0,1,4.039-4.039m0-2.02a6.059,6.059,0,1,0,6.059,6.059,6.061,6.061,0,0,0-6.059-6.059Z" transform="translate(-5.191 -5.191)"/></svg>